<svg width="24" height="24" viewBox="0 0 24 24" fill="none" xmlns="http://www.w3.org/2000/svg">
<g id="Social">
<path id="Path-3" fill-rule="evenodd" clip-rule="evenodd" d="M3.23741 11.7157C8.06923 9.51418 11.2912 8.0628 12.9033 7.36157C17.5063 5.3594 18.4627 5.01161 19.0861 5.00012C19.2232 4.9976 19.5298 5.03313 19.7284 5.20165C19.8961 5.34394 19.9422 5.53615 19.9643 5.67105C19.9864 5.80596 20.0139 6.11328 19.992 6.35341C19.7426 9.09422 18.6633 15.7454 18.1142 18.8152C17.8818 20.1141 17.4244 20.5496 16.9815 20.5923C16.0189 20.6849 15.288 19.9271 14.3558 19.288C12.897 18.288 12.0729 17.6654 10.6569 16.6896C9.02048 15.5619 10.0813 14.942 11.0139 13.929C11.258 13.6639 15.4988 9.62996 15.5809 9.26401C15.5912 9.21825 15.6007 9.04764 15.5038 8.95756C15.4069 8.86748 15.2639 8.89828 15.1606 8.92278C15.0143 8.95751 12.6839 10.5683 8.16938 13.7553C7.5079 14.2303 6.90875 14.4617 6.37193 14.4496C5.78013 14.4362 4.64175 14.0997 3.79548 13.812C2.75749 13.4591 1.93252 13.2726 2.00436 12.6733C2.04178 12.3612 2.45279 12.042 3.23741 11.7157Z" fill="#53546E"/>
</g>
</svg>
